<svg width="22" height="22" viewBox="0 0 22 22" fill="none" xmlns="http://www.w3.org/2000/svg">
<path d="M1 4.21429C1 3.89224 1.12793 3.58338 1.35566 3.35566C1.58338 3.12793 1.89224 3 2.21429 3H19.2143C19.5363 3 19.8452 3.12793 20.0729 3.35566C20.3006 3.58338 20.4286 3.89224 20.4286 4.21429C20.4286 4.53633 20.3006 4.84519 20.0729 5.07292C19.8452 5.30064 19.5363 5.42857 19.2143 5.42857H2.21429C1.89224 5.42857 1.58338 5.30064 1.35566 5.07292C1.12793 4.84519 1 4.53633 1 4.21429ZM1 18.7857C1 18.4637 1.12793 18.1548 1.35566 17.9271C1.58338 17.6994 1.89224 17.5714 2.21429 17.5714H19.2143C19.5363 17.5714 19.8452 17.6994 20.0729 17.9271C20.3006 18.1548 20.4286 18.4637 20.4286 18.7857C20.4286 19.1078 20.3006 19.4166 20.0729 19.6443C19.8452 19.8721 19.5363 20 19.2143 20H2.21429C1.89224 20 1.58338 19.8721 1.35566 19.6443C1.12793 19.4166 1 19.1078 1 18.7857ZM5.5 10.2857C5.17795 10.2857 4.86909 10.4136 4.64137 10.6414C4.41365 10.8691 4.28571 11.178 4.28571 11.5C4.28571 11.822 4.41365 12.1309 4.64137 12.3586C4.86909 12.5864 5.17795 12.7143 5.5 12.7143H19.2143C19.5363 12.7143 19.8452 12.5864 20.0729 12.3586C20.3006 12.1309 20.4286 11.822 20.4286 11.5C20.4286 11.178 20.3006 10.8691 20.0729 10.6414C19.8452 10.4136 19.5363 10.2857 19.2143 10.2857H5.5Z" fill="#303030"/>
</svg>
