<svg width="87" height="111" viewBox="0 0 87 111" fill="none" xmlns="http://www.w3.org/2000/svg">
<g filter="url(#filter0_di_1_354)">
<path d="M76.005 64.4898C76.005 82.4418 61.452 96.9949 43.5 96.9949C34.5764 96.9949 26.4496 92.7 20.535 86.4437C14.613 80.1795 10.995 72.0395 10.995 64.4898C10.9951 58.1038 13.7841 52.4936 17.6893 46.6896C19.1742 44.4826 20.8008 42.275 22.4828 39.9923C23.0143 39.2709 23.5513 38.5421 24.0911 37.8034C26.33 34.7398 28.6005 31.5283 30.6469 28.0691C35.3482 20.1216 36.9769 14.8603 36.9769 8.54601C36.9769 8.19002 37.0378 8.0454 37.0605 8.00355C37.0884 7.99674 37.1477 7.98959 37.2568 7.99993C37.5136 8.02424 37.8954 8.13754 38.4061 8.37851C38.9052 8.61399 39.4728 8.9449 40.088 9.35095C42.5662 10.9866 45.5248 13.6426 47.3531 15.3534C70.0394 36.5815 76.005 50.1016 76.005 64.4898ZM37.0397 8.01152C37.0393 8.01114 37.0423 8.00911 37.0498 8.00658C37.0439 8.01065 37.0401 8.01191 37.0397 8.01152Z" fill="#00B488" stroke="#FCFFFE" stroke-width="1.9901"/>
<path d="M70.698 70.3166C70.698 84.774 58.5539 96.5526 43.5 96.5526C36.0294 96.5526 29.2261 93.0796 24.2756 88.0217C19.316 82.9546 16.3019 76.3856 16.3019 70.3166C16.3019 65.1728 18.5104 60.4571 21.7208 55.6657C23.324 53.273 25.1572 50.8895 27.0626 48.4379C27.2247 48.2294 27.3873 48.0203 27.5503 47.8108C29.2968 45.5655 31.0893 43.2612 32.7751 40.8734C38.6418 32.5633 40.2871 29.6169 41.8858 23.6452C41.9213 23.5128 41.9564 23.4338 41.9804 23.3897C42.0619 23.4049 42.2075 23.4515 42.4278 23.5718C42.679 23.7089 42.9761 23.9133 43.3176 24.1861C44.4136 25.0618 45.7041 26.4207 47.0576 27.8461C47.4362 28.2448 47.8198 28.6487 48.2053 29.0486C66.0628 47.5716 70.698 58.6739 70.698 70.3166Z" fill="#FCFFFE" stroke="#FCFFFE" stroke-width="1.9901"/>
<path d="M38.2952 87.404C39.4223 89.8976 40.9637 92.014 42.4384 93.6044C37.4897 92.8839 33.0216 90.2505 29.6207 86.6498C25.5994 82.3921 23.1568 76.8722 23.1568 71.7783C23.1568 67.4655 24.9431 63.5053 27.5548 59.4657C28.8593 57.4482 30.3515 55.4374 31.9059 53.3648C32.0382 53.1885 32.1709 53.0117 32.3039 52.8344C33.7282 50.9369 35.1925 48.9862 36.5696 46.9647C41.2229 40.134 42.1913 37.4472 43.8067 32.9653C43.868 32.7952 43.9303 32.6225 43.9937 32.4469C44.002 32.4238 44.0099 32.4042 44.0171 32.3876C44.2016 32.4422 44.5428 32.6205 45.0527 33.0332C46.157 33.9271 47.4825 35.4326 48.7538 36.8766L48.8341 36.9678C62.9533 53.003 67.1601 61.9973 67.1601 71.7783C67.1601 81.0139 61.4804 88.923 53.4262 92.1944C62.1337 75.0837 56.9761 62.6402 52.8454 58.29L50.7808 56.1158L51.1357 59.093C51.8146 64.7864 51.6548 68.767 50.9989 71.4707C50.3456 74.1639 49.2323 75.4801 48.0726 76.0676C46.8911 76.6661 45.4216 76.6315 43.8141 76.1105C42.2142 75.5921 40.5987 74.6273 39.2526 73.5627L38.1849 72.7184L37.7044 73.9919C35.8214 78.9819 36.5966 83.6458 38.2952 87.404Z" fill="#DC0000" stroke="#DC0000" stroke-width="1.9901"/>
</g>
<defs>
<filter id="filter0_di_1_354" x="0" y="0" width="87" height="110.99" filterUnits="userSpaceOnUse" color-interpolation-filters="sRGB">
<feFlood flood-opacity="0" result="BackgroundImageFix"/>
<feColorMatrix in="SourceAlpha" type="matrix" values="0 0 0 0 0 0 0 0 0 0 0 0 0 0 0 0 0 0 127 0" result="hardAlpha"/>
<feOffset dy="3"/>
<feGaussianBlur stdDeviation="5"/>
<feComposite in2="hardAlpha" operator="out"/>
<feColorMatrix type="matrix" values="0 0 0 0 0 0 0 0 0 0 0 0 0 0 0 0 0 0 0.2 0"/>
<feBlend mode="normal" in2="BackgroundImageFix" result="effect1_dropShadow_1_354"/>
<feBlend mode="normal" in="SourceGraphic" in2="effect1_dropShadow_1_354" result="shape"/>
<feColorMatrix in="SourceAlpha" type="matrix" values="0 0 0 0 0 0 0 0 0 0 0 0 0 0 0 0 0 0 127 0" result="hardAlpha"/>
<feOffset dy="2"/>
<feGaussianBlur stdDeviation="2"/>
<feComposite in2="hardAlpha" operator="arithmetic" k2="-1" k3="1"/>
<feColorMatrix type="matrix" values="0 0 0 0 0 0 0 0 0 0 0 0 0 0 0 0 0 0 0.05 0"/>
<feBlend mode="normal" in2="shape" result="effect2_innerShadow_1_354"/>
</filter>
</defs>
</svg>
