<svg width="22" height="22" viewBox="0 0 22 22" fill="none" xmlns="http://www.w3.org/2000/svg">
<path d="M20.4763 15.1893C20.3948 15.0911 20.3147 14.9929 20.2362 14.8981C19.1558 13.5914 18.5022 12.8027 18.5022 9.10348C18.5022 7.1883 18.044 5.61687 17.1409 4.4383C16.475 3.56763 15.5749 2.90714 14.3885 2.41902C14.3732 2.41053 14.3596 2.39938 14.3482 2.38612C13.9215 0.957098 12.7537 0 11.4366 0C10.1196 0 8.95232 0.957098 8.52557 2.38464C8.51419 2.39742 8.50074 2.40821 8.4858 2.41656C5.71714 3.55634 4.3716 5.74308 4.3716 9.10201C4.3716 12.8027 3.71897 13.5914 2.63763 14.8967C2.55906 14.9914 2.47901 15.0877 2.39749 15.1879C2.18692 15.4418 2.05351 15.7508 2.01304 16.0782C1.97257 16.4056 2.02675 16.7377 2.16915 17.0353C2.47214 17.6737 3.1179 18.07 3.85499 18.07H19.0237C19.7574 18.07 20.3987 17.6742 20.7027 17.0387C20.8457 16.7411 20.9004 16.4086 20.8603 16.0809C20.8201 15.7531 20.6869 15.4437 20.4763 15.1893ZM11.4366 22C12.1463 21.9994 12.8425 21.8068 13.4515 21.4426C14.0605 21.0783 14.5596 20.556 14.8958 19.9311C14.9116 19.9012 14.9194 19.8676 14.9185 19.8338C14.9175 19.7999 14.9078 19.7669 14.8903 19.7378C14.8728 19.7088 14.8481 19.6848 14.8186 19.6682C14.7891 19.6516 14.7558 19.6428 14.7219 19.6429H8.15236C8.11844 19.6427 8.08507 19.6514 8.05549 19.668C8.02591 19.6846 8.00114 19.7086 7.98359 19.7376C7.96604 19.7667 7.9563 19.7997 7.95532 19.8336C7.95435 19.8675 7.96217 19.9011 7.97803 19.9311C8.31419 20.556 8.81317 21.0782 9.42208 21.4424C10.031 21.8067 10.7271 21.9993 11.4366 22Z" fill="#303030"/>
</svg>
